<?xml version="1.0" encoding="UTF-8"?>
<svg width="505px" height="349px" viewBox="0 0 505 349" version="1.1" xmlns="http://www.w3.org/2000/svg" xmlns:xlink="http://www.w3.org/1999/xlink">
    <!-- Generator: Sketch 49.1 (51147) - http://www.bohemiancoding.com/sketch -->
    <title>noun_736805_cc</title>
    <desc>Created with Sketch.</desc>
    <defs></defs>
    <g id="Fluxo-navegação" stroke="none" stroke-width="1" fill="none" fill-rule="evenodd">
        <g id="Wireframes" transform="translate(-5799.000000, -3065.000000)" fill="#FFFFFF" fill-rule="nonzero">
            <g id="noun_736805_cc" transform="translate(5799.000000, 3065.000000)">
                <g id="Group">
                    <path d="M464.832658,168.041869 C456.942644,178.08785 451.921726,183.828411 441.879891,183.828411 C431.838055,183.828411 426.817138,178.08785 418.927124,168.041869 C410.319836,157.278318 400.278001,143.644486 378.759782,143.644486 C357.958837,143.644486 347.199727,157.278318 338.59244,168.041869 C330.702426,178.08785 325.681508,183.828411 315.639673,183.828411 C305.597837,183.828411 300.57692,178.08785 292.686906,168.041869 C284.079618,157.278318 274.037783,143.644486 252.519564,143.644486 C231.718619,143.644486 220.959509,157.278318 212.352222,168.041869 C204.462208,178.08785 199.44129,183.828411 189.399455,183.828411 C179.357619,183.828411 174.336701,178.08785 166.446688,168.041869 C157.8394,157.278318 147.797565,143.644486 126.279346,143.644486 C104.761127,143.644486 94.7192912,157.278318 86.1120036,168.041869 C78.22199,178.08785 73.2010722,183.828411 63.1592367,183.828411 C53.1174012,183.828411 48.0964834,178.08785 40.2064698,168.041869 C31.5991822,157.278318 21.5573467,143.644486 0.0391276692,143.644486 L0.0391276692,165.171589 C10.0809632,165.171589 15.101881,170.91215 22.9918946,180.958131 C31.5991822,191.721682 41.6410177,205.355514 63.1592367,205.355514 C84.6774557,205.355514 94.7192912,191.721682 103.326579,180.958131 C111.216592,170.91215 116.23751,165.171589 126.279346,165.171589 C136.321181,165.171589 141.342099,170.91215 149.232113,180.958131 C157.8394,191.721682 167.881236,205.355514 189.399455,205.355514 C210.2004,205.355514 220.959509,191.721682 229.566797,180.958131 C237.456811,170.91215 242.477728,165.171589 252.519564,165.171589 C262.561399,165.171589 267.582317,170.91215 275.472331,180.958131 C284.079618,191.721682 294.121454,205.355514 315.639673,205.355514 C336.440618,205.355514 347.199727,191.721682 355.807015,180.958131 C363.697029,170.91215 368.717946,165.171589 378.759782,165.171589 C388.801617,165.171589 393.822535,170.91215 401.712549,180.958131 C410.319836,191.721682 420.361672,205.355514 441.879891,205.355514 C463.39811,205.355514 473.439945,191.721682 482.047233,180.958131 C489.937247,170.91215 494.958164,165.171589 505,165.171589 L505,143.644486 C484.199055,143.644486 473.439945,157.278318 464.832658,168.041869 Z" id="Shape"></path>
                    <path d="M464.832658,311.555888 C456.942644,321.601869 451.921726,327.34243 441.879891,327.34243 C431.838055,327.34243 426.817138,321.601869 418.927124,311.555888 C410.319836,300.792336 400.278001,287.158505 378.759782,287.158505 C357.958837,287.158505 347.199727,300.792336 338.59244,311.555888 C330.702426,321.601869 325.681508,327.34243 315.639673,327.34243 C305.597837,327.34243 300.57692,321.601869 292.686906,311.555888 C284.079618,300.792336 274.037783,287.158505 252.519564,287.158505 C231.718619,287.158505 220.959509,300.792336 212.352222,311.555888 C204.462208,321.601869 199.44129,327.34243 189.399455,327.34243 C179.357619,327.34243 174.336701,321.601869 166.446688,311.555888 C157.8394,300.792336 147.797565,287.158505 126.279346,287.158505 C104.761127,287.158505 94.7192912,300.792336 86.1120036,311.555888 C78.22199,321.601869 73.2010722,327.34243 63.1592367,327.34243 C53.1174012,327.34243 48.0964834,321.601869 40.2064698,311.555888 C31.5991822,300.792336 21.5573467,287.158505 0.0391276692,287.158505 L0.0391276692,308.685607 C10.0809632,308.685607 15.101881,314.426168 22.9918946,324.47215 C31.5991822,335.235701 41.6410177,348.869533 63.1592367,348.869533 C84.6774557,348.869533 94.7192912,335.235701 103.326579,324.47215 C111.216592,314.426168 116.23751,308.685607 126.279346,308.685607 C136.321181,308.685607 141.342099,314.426168 149.232113,324.47215 C157.8394,335.235701 167.881236,348.869533 189.399455,348.869533 C210.2004,348.869533 220.959509,335.235701 229.566797,324.47215 C237.456811,314.426168 242.477728,308.685607 252.519564,308.685607 C262.561399,308.685607 267.582317,314.426168 275.472331,324.47215 C284.079618,335.235701 294.121454,348.869533 315.639673,348.869533 C336.440618,348.869533 347.199727,335.235701 355.807015,324.47215 C363.697029,314.426168 368.717946,308.685607 378.759782,308.685607 C388.801617,308.685607 393.822535,314.426168 401.712549,324.47215 C410.319836,335.235701 420.361672,348.869533 441.879891,348.869533 C463.39811,348.869533 473.439945,335.235701 482.047233,324.47215 C489.937247,314.426168 494.958164,308.685607 505,308.685607 L505,287.158505 C484.199055,287.158505 473.439945,300.792336 464.832658,311.555888 Z" id="Shape"></path>
                    <path d="M464.832658,24.5278505 C456.942644,34.5738318 451.921726,40.3143925 441.879891,40.3143925 C431.838055,40.3143925 426.817138,34.5738318 418.927124,24.5278505 C410.319836,13.7642991 400.278001,0.13046729 378.759782,0.13046729 C357.958837,0.13046729 347.199727,13.7642991 338.59244,24.5278505 C330.702426,34.5738318 325.681508,40.3143925 315.639673,40.3143925 C305.597837,40.3143925 300.57692,34.5738318 292.686906,24.5278505 C284.079618,13.7642991 274.037783,0.13046729 252.519564,0.13046729 C231.718619,0.13046729 220.959509,13.7642991 212.352222,24.5278505 C204.462208,34.5738318 199.44129,40.3143925 189.399455,40.3143925 C179.357619,40.3143925 174.336701,34.5738318 166.446688,24.5278505 C157.8394,13.7642991 147.797565,0.13046729 126.279346,0.13046729 C104.761127,0.13046729 94.7192912,13.7642991 86.1120036,24.5278505 C78.22199,34.5738318 73.2010722,40.3143925 63.1592367,40.3143925 C53.1174012,40.3143925 48.0964834,34.5738318 40.2064698,24.5278505 C31.5991822,13.7642991 21.5573467,0.13046729 0.0391276692,0.13046729 L0.0391276692,21.6575701 C10.0809632,21.6575701 15.101881,27.3981308 22.9918946,37.4441121 C31.5991822,48.2076636 41.6410177,61.8414953 63.1592367,61.8414953 C84.6774557,61.8414953 94.7192912,48.2076636 103.326579,37.4441121 C111.216592,27.3981308 116.23751,21.6575701 126.279346,21.6575701 C136.321181,21.6575701 141.342099,27.3981308 149.232113,37.4441121 C157.8394,48.2076636 167.881236,61.8414953 189.399455,61.8414953 C210.2004,61.8414953 220.959509,48.2076636 229.566797,37.4441121 C237.456811,27.3981308 242.477728,21.6575701 252.519564,21.6575701 C262.561399,21.6575701 267.582317,27.3981308 275.472331,37.4441121 C284.079618,48.2076636 294.121454,61.8414953 315.639673,61.8414953 C336.440618,61.8414953 347.199727,48.2076636 355.807015,37.4441121 C363.697029,27.3981308 368.717946,21.6575701 378.759782,21.6575701 C388.801617,21.6575701 393.822535,27.3981308 401.712549,37.4441121 C410.319836,48.2076636 420.361672,61.8414953 441.879891,61.8414953 C463.39811,61.8414953 473.439945,48.2076636 482.047233,37.4441121 C489.937247,27.3981308 494.958164,21.6575701 505,21.6575701 L505,0.13046729 C484.199055,0.13046729 473.439945,13.7642991 464.832658,24.5278505 Z" id="Shape"></path>
                </g>
            </g>
        </g>
    </g>
</svg>